%TF.GenerationSoftware,KiCad,Pcbnew,(5.1.6)-1*%
%TF.CreationDate,2021-05-20T08:24:50-04:00*%
%TF.ProjectId,ATX2AT-5v,41545832-4154-42d3-9576-2e6b69636164,rev?*%
%TF.SameCoordinates,Original*%
%TF.FileFunction,Legend,Bot*%
%TF.FilePolarity,Positive*%
%FSLAX46Y46*%
G04 Gerber Fmt 4.6, Leading zero omitted, Abs format (unit mm)*
G04 Created by KiCad (PCBNEW (5.1.6)-1) date 2021-05-20 08:24:50*
%MOMM*%
%LPD*%
G01*
G04 APERTURE LIST*
%ADD10C,0.150000*%
%ADD11C,0.250000*%
G04 APERTURE END LIST*
D10*
X130968571Y-85637714D02*
X130730476Y-86304380D01*
X130492380Y-85637714D01*
X129920952Y-85304380D02*
X129825714Y-85304380D01*
X129730476Y-85352000D01*
X129682857Y-85399619D01*
X129635238Y-85494857D01*
X129587619Y-85685333D01*
X129587619Y-85923428D01*
X129635238Y-86113904D01*
X129682857Y-86209142D01*
X129730476Y-86256761D01*
X129825714Y-86304380D01*
X129920952Y-86304380D01*
X130016190Y-86256761D01*
X130063809Y-86209142D01*
X130111428Y-86113904D01*
X130159047Y-85923428D01*
X130159047Y-85685333D01*
X130111428Y-85494857D01*
X130063809Y-85399619D01*
X130016190Y-85352000D01*
X129920952Y-85304380D01*
X129159047Y-86209142D02*
X129111428Y-86256761D01*
X129159047Y-86304380D01*
X129206666Y-86256761D01*
X129159047Y-86209142D01*
X129159047Y-86304380D01*
X128159047Y-86304380D02*
X128730476Y-86304380D01*
X128444761Y-86304380D02*
X128444761Y-85304380D01*
X128540000Y-85447238D01*
X128635238Y-85542476D01*
X128730476Y-85590095D01*
D11*
X134111428Y-76902857D02*
X132587619Y-76902857D01*
X130682857Y-75664761D02*
X131635238Y-75664761D01*
X131730476Y-76617142D01*
X131635238Y-76521904D01*
X131444761Y-76426666D01*
X130968571Y-76426666D01*
X130778095Y-76521904D01*
X130682857Y-76617142D01*
X130587619Y-76807619D01*
X130587619Y-77283809D01*
X130682857Y-77474285D01*
X130778095Y-77569523D01*
X130968571Y-77664761D01*
X131444761Y-77664761D01*
X131635238Y-77569523D01*
X131730476Y-77474285D01*
X130016190Y-75664761D02*
X129349523Y-77664761D01*
X128682857Y-75664761D01*
X128016190Y-77664761D02*
X128016190Y-75664761D01*
X127540000Y-75664761D01*
X127254285Y-75760000D01*
X127063809Y-75950476D01*
X126968571Y-76140952D01*
X126873333Y-76521904D01*
X126873333Y-76807619D01*
X126968571Y-77188571D01*
X127063809Y-77379047D01*
X127254285Y-77569523D01*
X127540000Y-77664761D01*
X128016190Y-77664761D01*
X124873333Y-77474285D02*
X124968571Y-77569523D01*
X125254285Y-77664761D01*
X125444761Y-77664761D01*
X125730476Y-77569523D01*
X125920952Y-77379047D01*
X126016190Y-77188571D01*
X126111428Y-76807619D01*
X126111428Y-76521904D01*
X126016190Y-76140952D01*
X125920952Y-75950476D01*
X125730476Y-75760000D01*
X125444761Y-75664761D01*
X125254285Y-75664761D01*
X124968571Y-75760000D01*
X124873333Y-75855238D01*
X135254285Y-79010000D02*
X135444761Y-78914761D01*
X135730476Y-78914761D01*
X136016190Y-79010000D01*
X136206666Y-79200476D01*
X136301904Y-79390952D01*
X136397142Y-79771904D01*
X136397142Y-80057619D01*
X136301904Y-80438571D01*
X136206666Y-80629047D01*
X136016190Y-80819523D01*
X135730476Y-80914761D01*
X135540000Y-80914761D01*
X135254285Y-80819523D01*
X135159047Y-80724285D01*
X135159047Y-80057619D01*
X135540000Y-80057619D01*
X133540000Y-80819523D02*
X133730476Y-80914761D01*
X134111428Y-80914761D01*
X134301904Y-80819523D01*
X134397142Y-80629047D01*
X134397142Y-79867142D01*
X134301904Y-79676666D01*
X134111428Y-79581428D01*
X133730476Y-79581428D01*
X133540000Y-79676666D01*
X133444761Y-79867142D01*
X133444761Y-80057619D01*
X134397142Y-80248095D01*
X132587619Y-79581428D02*
X132587619Y-80914761D01*
X132587619Y-79771904D02*
X132492380Y-79676666D01*
X132301904Y-79581428D01*
X132016190Y-79581428D01*
X131825714Y-79676666D01*
X131730476Y-79867142D01*
X131730476Y-80914761D01*
X130016190Y-80819523D02*
X130206666Y-80914761D01*
X130587619Y-80914761D01*
X130778095Y-80819523D01*
X130873333Y-80629047D01*
X130873333Y-79867142D01*
X130778095Y-79676666D01*
X130587619Y-79581428D01*
X130206666Y-79581428D01*
X130016190Y-79676666D01*
X129920952Y-79867142D01*
X129920952Y-80057619D01*
X130873333Y-80248095D01*
X129063809Y-80914761D02*
X129063809Y-79581428D01*
X129063809Y-79962380D02*
X128968571Y-79771904D01*
X128873333Y-79676666D01*
X128682857Y-79581428D01*
X128492380Y-79581428D01*
X126968571Y-80914761D02*
X126968571Y-79867142D01*
X127063809Y-79676666D01*
X127254285Y-79581428D01*
X127635238Y-79581428D01*
X127825714Y-79676666D01*
X126968571Y-80819523D02*
X127159047Y-80914761D01*
X127635238Y-80914761D01*
X127825714Y-80819523D01*
X127920952Y-80629047D01*
X127920952Y-80438571D01*
X127825714Y-80248095D01*
X127635238Y-80152857D01*
X127159047Y-80152857D01*
X126968571Y-80057619D01*
X126301904Y-79581428D02*
X125540000Y-79581428D01*
X126016190Y-78914761D02*
X126016190Y-80629047D01*
X125920952Y-80819523D01*
X125730476Y-80914761D01*
X125540000Y-80914761D01*
X124587619Y-80914761D02*
X124778095Y-80819523D01*
X124873333Y-80724285D01*
X124968571Y-80533809D01*
X124968571Y-79962380D01*
X124873333Y-79771904D01*
X124778095Y-79676666D01*
X124587619Y-79581428D01*
X124301904Y-79581428D01*
X124111428Y-79676666D01*
X124016190Y-79771904D01*
X123920952Y-79962380D01*
X123920952Y-80533809D01*
X124016190Y-80724285D01*
X124111428Y-80819523D01*
X124301904Y-80914761D01*
X124587619Y-80914761D01*
X123063809Y-80914761D02*
X123063809Y-79581428D01*
X123063809Y-79962380D02*
X122968571Y-79771904D01*
X122873333Y-79676666D01*
X122682857Y-79581428D01*
X122492380Y-79581428D01*
X136349523Y-83593333D02*
X135397142Y-83593333D01*
X136540000Y-84164761D02*
X135873333Y-82164761D01*
X135206666Y-84164761D01*
X134825714Y-82164761D02*
X133682857Y-82164761D01*
X134254285Y-84164761D02*
X134254285Y-82164761D01*
X133206666Y-82164761D02*
X131873333Y-84164761D01*
X131873333Y-82164761D02*
X133206666Y-84164761D01*
X129873333Y-82831428D02*
X129111428Y-82831428D01*
X129587619Y-82164761D02*
X129587619Y-83879047D01*
X129492380Y-84069523D01*
X129301904Y-84164761D01*
X129111428Y-84164761D01*
X128159047Y-84164761D02*
X128349523Y-84069523D01*
X128444761Y-83974285D01*
X128540000Y-83783809D01*
X128540000Y-83212380D01*
X128444761Y-83021904D01*
X128349523Y-82926666D01*
X128159047Y-82831428D01*
X127873333Y-82831428D01*
X127682857Y-82926666D01*
X127587619Y-83021904D01*
X127492380Y-83212380D01*
X127492380Y-83783809D01*
X127587619Y-83974285D01*
X127682857Y-84069523D01*
X127873333Y-84164761D01*
X128159047Y-84164761D01*
X125206666Y-83593333D02*
X124254285Y-83593333D01*
X125397142Y-84164761D02*
X124730476Y-82164761D01*
X124063809Y-84164761D01*
X123682857Y-82164761D02*
X122540000Y-82164761D01*
X123111428Y-84164761D02*
X123111428Y-82164761D01*
D10*
X135373333Y-95289714D02*
X135182857Y-95956380D01*
X134992380Y-95480190D01*
X134801904Y-95956380D01*
X134611428Y-95289714D01*
X134230476Y-95956380D02*
X134230476Y-95289714D01*
X134230476Y-94956380D02*
X134278095Y-95004000D01*
X134230476Y-95051619D01*
X134182857Y-95004000D01*
X134230476Y-94956380D01*
X134230476Y-95051619D01*
X133754285Y-95956380D02*
X133754285Y-95289714D01*
X133754285Y-95480190D02*
X133706666Y-95384952D01*
X133659047Y-95337333D01*
X133563809Y-95289714D01*
X133468571Y-95289714D01*
X132754285Y-95908761D02*
X132849523Y-95956380D01*
X133040000Y-95956380D01*
X133135238Y-95908761D01*
X133182857Y-95813523D01*
X133182857Y-95432571D01*
X133135238Y-95337333D01*
X133040000Y-95289714D01*
X132849523Y-95289714D01*
X132754285Y-95337333D01*
X132706666Y-95432571D01*
X132706666Y-95527809D01*
X133182857Y-95623047D01*
X132420952Y-95289714D02*
X132040000Y-95289714D01*
X132278095Y-94956380D02*
X132278095Y-95813523D01*
X132230476Y-95908761D01*
X132135238Y-95956380D01*
X132040000Y-95956380D01*
X131278095Y-95956380D02*
X131278095Y-95432571D01*
X131325714Y-95337333D01*
X131420952Y-95289714D01*
X131611428Y-95289714D01*
X131706666Y-95337333D01*
X131278095Y-95908761D02*
X131373333Y-95956380D01*
X131611428Y-95956380D01*
X131706666Y-95908761D01*
X131754285Y-95813523D01*
X131754285Y-95718285D01*
X131706666Y-95623047D01*
X131611428Y-95575428D01*
X131373333Y-95575428D01*
X131278095Y-95527809D01*
X130801904Y-95289714D02*
X130801904Y-96289714D01*
X130801904Y-95337333D02*
X130706666Y-95289714D01*
X130516190Y-95289714D01*
X130420952Y-95337333D01*
X130373333Y-95384952D01*
X130325714Y-95480190D01*
X130325714Y-95765904D01*
X130373333Y-95861142D01*
X130420952Y-95908761D01*
X130516190Y-95956380D01*
X130706666Y-95956380D01*
X130801904Y-95908761D01*
X129135238Y-95575428D02*
X128373333Y-95575428D01*
X127182857Y-95051619D02*
X127135238Y-95004000D01*
X127040000Y-94956380D01*
X126801904Y-94956380D01*
X126706666Y-95004000D01*
X126659047Y-95051619D01*
X126611428Y-95146857D01*
X126611428Y-95242095D01*
X126659047Y-95384952D01*
X127230476Y-95956380D01*
X126611428Y-95956380D01*
X125992380Y-94956380D02*
X125897142Y-94956380D01*
X125801904Y-95004000D01*
X125754285Y-95051619D01*
X125706666Y-95146857D01*
X125659047Y-95337333D01*
X125659047Y-95575428D01*
X125706666Y-95765904D01*
X125754285Y-95861142D01*
X125801904Y-95908761D01*
X125897142Y-95956380D01*
X125992380Y-95956380D01*
X126087619Y-95908761D01*
X126135238Y-95861142D01*
X126182857Y-95765904D01*
X126230476Y-95575428D01*
X126230476Y-95337333D01*
X126182857Y-95146857D01*
X126135238Y-95051619D01*
X126087619Y-95004000D01*
X125992380Y-94956380D01*
X125278095Y-95051619D02*
X125230476Y-95004000D01*
X125135238Y-94956380D01*
X124897142Y-94956380D01*
X124801904Y-95004000D01*
X124754285Y-95051619D01*
X124706666Y-95146857D01*
X124706666Y-95242095D01*
X124754285Y-95384952D01*
X125325714Y-95956380D01*
X124706666Y-95956380D01*
X123754285Y-95956380D02*
X124325714Y-95956380D01*
X124040000Y-95956380D02*
X124040000Y-94956380D01*
X124135238Y-95099238D01*
X124230476Y-95194476D01*
X124325714Y-95242095D01*
M02*
