%TF.GenerationSoftware,KiCad,Pcbnew,(5.1.6)-1*%
%TF.CreationDate,2021-05-20T08:24:50-04:00*%
%TF.ProjectId,ATX2AT-5v,41545832-4154-42d3-9576-2e6b69636164,rev?*%
%TF.SameCoordinates,Original*%
%TF.FileFunction,Copper,L1,Top*%
%TF.FilePolarity,Positive*%
%FSLAX46Y46*%
G04 Gerber Fmt 4.6, Leading zero omitted, Abs format (unit mm)*
G04 Created by KiCad (PCBNEW (5.1.6)-1) date 2021-05-20 08:24:50*
%MOMM*%
%LPD*%
G01*
G04 APERTURE LIST*
%TA.AperFunction,ComponentPad*%
%ADD10C,3.000000*%
%TD*%
%TA.AperFunction,ComponentPad*%
%ADD11R,1.905000X2.000000*%
%TD*%
%TA.AperFunction,ComponentPad*%
%ADD12O,1.905000X2.000000*%
%TD*%
%TA.AperFunction,Conductor*%
%ADD13C,1.250000*%
%TD*%
%TA.AperFunction,Conductor*%
%ADD14C,0.254000*%
%TD*%
G04 APERTURE END LIST*
%TO.P,C1,1*%
%TO.N,Net-(C1-Pad1)*%
%TA.AperFunction,SMDPad,CuDef*%
G36*
G01*
X122845001Y-81917000D02*
X120994999Y-81917000D01*
G75*
G02*
X120745000Y-81667001I0J249999D01*
G01*
X120745000Y-79916999D01*
G75*
G02*
X120994999Y-79667000I249999J0D01*
G01*
X122845001Y-79667000D01*
G75*
G02*
X123095000Y-79916999I0J-249999D01*
G01*
X123095000Y-81667001D01*
G75*
G02*
X122845001Y-81917000I-249999J0D01*
G01*
G37*
%TD.AperFunction*%
%TO.P,C1,2*%
%TO.N,Net-(C1-Pad2)*%
%TA.AperFunction,SMDPad,CuDef*%
G36*
G01*
X122845001Y-76817000D02*
X120994999Y-76817000D01*
G75*
G02*
X120745000Y-76567001I0J249999D01*
G01*
X120745000Y-74816999D01*
G75*
G02*
X120994999Y-74567000I249999J0D01*
G01*
X122845001Y-74567000D01*
G75*
G02*
X123095000Y-74816999I0J-249999D01*
G01*
X123095000Y-76567001D01*
G75*
G02*
X122845001Y-76817000I-249999J0D01*
G01*
G37*
%TD.AperFunction*%
%TD*%
%TO.P,C2,2*%
%TO.N,Net-(C2-Pad2)*%
%TA.AperFunction,SMDPad,CuDef*%
G36*
G01*
X138085001Y-76817000D02*
X136234999Y-76817000D01*
G75*
G02*
X135985000Y-76567001I0J249999D01*
G01*
X135985000Y-74816999D01*
G75*
G02*
X136234999Y-74567000I249999J0D01*
G01*
X138085001Y-74567000D01*
G75*
G02*
X138335000Y-74816999I0J-249999D01*
G01*
X138335000Y-76567001D01*
G75*
G02*
X138085001Y-76817000I-249999J0D01*
G01*
G37*
%TD.AperFunction*%
%TO.P,C2,1*%
%TO.N,Net-(C1-Pad1)*%
%TA.AperFunction,SMDPad,CuDef*%
G36*
G01*
X138085001Y-81917000D02*
X136234999Y-81917000D01*
G75*
G02*
X135985000Y-81667001I0J249999D01*
G01*
X135985000Y-79916999D01*
G75*
G02*
X136234999Y-79667000I249999J0D01*
G01*
X138085001Y-79667000D01*
G75*
G02*
X138335000Y-79916999I0J-249999D01*
G01*
X138335000Y-81667001D01*
G75*
G02*
X138085001Y-81917000I-249999J0D01*
G01*
G37*
%TD.AperFunction*%
%TD*%
D10*
%TO.P,-12V,1*%
%TO.N,Net-(C1-Pad2)*%
X126746000Y-63500000D03*
%TD*%
%TO.P,GND,1*%
%TO.N,Net-(C1-Pad1)*%
X132588000Y-63500000D03*
%TD*%
%TO.P,-12V,1*%
%TO.N,Net-(C1-Pad2)*%
X124460000Y-92964000D03*
%TD*%
%TO.P,-5V,1*%
%TO.N,Net-(C2-Pad2)*%
X129540000Y-92964000D03*
%TD*%
%TO.P,GND,1*%
%TO.N,Net-(C1-Pad1)*%
X134620000Y-92964000D03*
%TD*%
D11*
%TO.P,U1,1*%
%TO.N,Net-(C1-Pad1)*%
X126941001Y-88315001D03*
D12*
%TO.P,U1,2*%
%TO.N,Net-(C1-Pad2)*%
X129481001Y-88315001D03*
%TO.P,U1,3*%
%TO.N,Net-(C2-Pad2)*%
X132021001Y-88315001D03*
%TD*%
D13*
%TO.N,Net-(C1-Pad2)*%
X121920000Y-75692000D02*
X122936000Y-75692000D01*
X129481001Y-88315001D02*
X129481001Y-78427001D01*
X126746000Y-75692000D02*
X126746000Y-63500000D01*
X129481001Y-78427001D02*
X126746000Y-75692000D01*
X126746000Y-75692000D02*
X121920000Y-75692000D01*
%TO.N,Net-(C2-Pad2)*%
X132021001Y-90482999D02*
X129540000Y-92964000D01*
X132021001Y-88315001D02*
X132021001Y-90482999D01*
X132021001Y-80830999D02*
X137160000Y-75692000D01*
X132021001Y-88315001D02*
X132021001Y-80830999D01*
%TD*%
D14*
%TO.N,Net-(C1-Pad1)*%
G36*
X126123244Y-61447047D02*
G01*
X125734698Y-61607988D01*
X125385017Y-61841637D01*
X125087637Y-62139017D01*
X124853988Y-62488698D01*
X124693047Y-62877244D01*
X124611000Y-63289721D01*
X124611000Y-63710279D01*
X124693047Y-64122756D01*
X124853988Y-64511302D01*
X125087637Y-64860983D01*
X125385017Y-65158363D01*
X125486001Y-65225838D01*
X125486000Y-74432000D01*
X123641339Y-74432000D01*
X123583405Y-74323613D01*
X123472962Y-74189038D01*
X123338387Y-74078595D01*
X123184851Y-73996528D01*
X123018255Y-73945992D01*
X122845001Y-73928928D01*
X120994999Y-73928928D01*
X120821745Y-73945992D01*
X120655149Y-73996528D01*
X120501613Y-74078595D01*
X120367038Y-74189038D01*
X120256595Y-74323613D01*
X120174528Y-74477149D01*
X120123992Y-74643745D01*
X120106928Y-74816999D01*
X120106928Y-76567001D01*
X120123992Y-76740255D01*
X120174528Y-76906851D01*
X120256595Y-77060387D01*
X120367038Y-77194962D01*
X120501613Y-77305405D01*
X120655149Y-77387472D01*
X120821745Y-77438008D01*
X120994999Y-77455072D01*
X122845001Y-77455072D01*
X123018255Y-77438008D01*
X123184851Y-77387472D01*
X123338387Y-77305405D01*
X123472962Y-77194962D01*
X123583405Y-77060387D01*
X123641339Y-76952000D01*
X126224092Y-76952000D01*
X128221002Y-78948911D01*
X128221001Y-86770035D01*
X128137681Y-86725499D01*
X128017983Y-86689189D01*
X127893501Y-86676929D01*
X127226751Y-86680001D01*
X127068001Y-86838751D01*
X127068001Y-88188001D01*
X127088001Y-88188001D01*
X127088001Y-88442001D01*
X127068001Y-88442001D01*
X127068001Y-89791251D01*
X127226751Y-89950001D01*
X127893501Y-89953073D01*
X128017983Y-89940813D01*
X128137681Y-89904503D01*
X128247995Y-89845538D01*
X128344686Y-89766186D01*
X128424038Y-89669495D01*
X128468906Y-89585554D01*
X128594767Y-89688846D01*
X128870553Y-89836256D01*
X129169798Y-89927031D01*
X129481001Y-89957682D01*
X129792205Y-89927031D01*
X130091450Y-89836256D01*
X130367236Y-89688846D01*
X130608964Y-89490464D01*
X130751001Y-89317392D01*
X130761001Y-89329578D01*
X130761002Y-89961089D01*
X129869397Y-90852694D01*
X129750279Y-90829000D01*
X129329721Y-90829000D01*
X128917244Y-90911047D01*
X128528698Y-91071988D01*
X128179017Y-91305637D01*
X127881637Y-91603017D01*
X127647988Y-91952698D01*
X127487047Y-92341244D01*
X127405000Y-92753721D01*
X127405000Y-93174279D01*
X127487047Y-93586756D01*
X127647988Y-93975302D01*
X127881637Y-94324983D01*
X128179017Y-94622363D01*
X128528698Y-94856012D01*
X128917244Y-95016953D01*
X129329721Y-95099000D01*
X129750279Y-95099000D01*
X130162756Y-95016953D01*
X130551302Y-94856012D01*
X130900983Y-94622363D01*
X131067693Y-94455653D01*
X133307952Y-94455653D01*
X133463962Y-94771214D01*
X133838745Y-94962020D01*
X134243551Y-95076044D01*
X134662824Y-95108902D01*
X135080451Y-95059334D01*
X135480383Y-94929243D01*
X135776038Y-94771214D01*
X135932048Y-94455653D01*
X134620000Y-93143605D01*
X133307952Y-94455653D01*
X131067693Y-94455653D01*
X131198363Y-94324983D01*
X131432012Y-93975302D01*
X131592953Y-93586756D01*
X131675000Y-93174279D01*
X131675000Y-93006824D01*
X132475098Y-93006824D01*
X132524666Y-93424451D01*
X132654757Y-93824383D01*
X132812786Y-94120038D01*
X133128347Y-94276048D01*
X134440395Y-92964000D01*
X133128347Y-91651952D01*
X132812786Y-91807962D01*
X132621980Y-92182745D01*
X132507956Y-92587551D01*
X132475098Y-93006824D01*
X131675000Y-93006824D01*
X131675000Y-92753721D01*
X131651306Y-92634603D01*
X132813562Y-91472347D01*
X133307952Y-91472347D01*
X134620000Y-92784395D01*
X135932048Y-91472347D01*
X135776038Y-91156786D01*
X135401255Y-90965980D01*
X134996449Y-90851956D01*
X134577176Y-90819098D01*
X134159549Y-90868666D01*
X133759617Y-90998757D01*
X133463962Y-91156786D01*
X133307952Y-91472347D01*
X132813562Y-91472347D01*
X132868191Y-91417718D01*
X132916266Y-91378264D01*
X133073721Y-91186404D01*
X133190721Y-90967513D01*
X133262769Y-90730002D01*
X133281001Y-90544892D01*
X133281001Y-90544883D01*
X133287096Y-90483000D01*
X133281001Y-90421117D01*
X133281001Y-89329577D01*
X133347346Y-89248735D01*
X133494756Y-88972949D01*
X133585531Y-88673704D01*
X133608501Y-88440486D01*
X133608501Y-88189515D01*
X133585531Y-87956297D01*
X133494756Y-87657052D01*
X133347346Y-87381266D01*
X133281001Y-87300425D01*
X133281001Y-81917000D01*
X135346928Y-81917000D01*
X135359188Y-82041482D01*
X135395498Y-82161180D01*
X135454463Y-82271494D01*
X135533815Y-82368185D01*
X135630506Y-82447537D01*
X135740820Y-82506502D01*
X135860518Y-82542812D01*
X135985000Y-82555072D01*
X136874250Y-82552000D01*
X137033000Y-82393250D01*
X137033000Y-80919000D01*
X137287000Y-80919000D01*
X137287000Y-82393250D01*
X137445750Y-82552000D01*
X138335000Y-82555072D01*
X138459482Y-82542812D01*
X138579180Y-82506502D01*
X138689494Y-82447537D01*
X138786185Y-82368185D01*
X138865537Y-82271494D01*
X138924502Y-82161180D01*
X138960812Y-82041482D01*
X138973072Y-81917000D01*
X138970000Y-81077750D01*
X138811250Y-80919000D01*
X137287000Y-80919000D01*
X137033000Y-80919000D01*
X135508750Y-80919000D01*
X135350000Y-81077750D01*
X135346928Y-81917000D01*
X133281001Y-81917000D01*
X133281001Y-81352907D01*
X134966908Y-79667000D01*
X135346928Y-79667000D01*
X135350000Y-80506250D01*
X135508750Y-80665000D01*
X137033000Y-80665000D01*
X137033000Y-79190750D01*
X137287000Y-79190750D01*
X137287000Y-80665000D01*
X138811250Y-80665000D01*
X138970000Y-80506250D01*
X138973072Y-79667000D01*
X138960812Y-79542518D01*
X138924502Y-79422820D01*
X138865537Y-79312506D01*
X138786185Y-79215815D01*
X138689494Y-79136463D01*
X138579180Y-79077498D01*
X138459482Y-79041188D01*
X138335000Y-79028928D01*
X137445750Y-79032000D01*
X137287000Y-79190750D01*
X137033000Y-79190750D01*
X136874250Y-79032000D01*
X135985000Y-79028928D01*
X135860518Y-79041188D01*
X135740820Y-79077498D01*
X135630506Y-79136463D01*
X135533815Y-79215815D01*
X135454463Y-79312506D01*
X135395498Y-79422820D01*
X135359188Y-79542518D01*
X135346928Y-79667000D01*
X134966908Y-79667000D01*
X137178837Y-77455072D01*
X138085001Y-77455072D01*
X138258255Y-77438008D01*
X138424851Y-77387472D01*
X138578387Y-77305405D01*
X138712962Y-77194962D01*
X138823405Y-77060387D01*
X138905472Y-76906851D01*
X138956008Y-76740255D01*
X138973072Y-76567001D01*
X138973072Y-74816999D01*
X138956008Y-74643745D01*
X138905472Y-74477149D01*
X138823405Y-74323613D01*
X138712962Y-74189038D01*
X138578387Y-74078595D01*
X138424851Y-73996528D01*
X138258255Y-73945992D01*
X138085001Y-73928928D01*
X136234999Y-73928928D01*
X136061745Y-73945992D01*
X135895149Y-73996528D01*
X135741613Y-74078595D01*
X135607038Y-74189038D01*
X135496595Y-74323613D01*
X135414528Y-74477149D01*
X135363992Y-74643745D01*
X135346928Y-74816999D01*
X135346928Y-75723163D01*
X131173812Y-79896280D01*
X131125737Y-79935734D01*
X131086283Y-79983809D01*
X131086282Y-79983810D01*
X130968281Y-80127594D01*
X130851281Y-80346486D01*
X130779234Y-80583996D01*
X130754906Y-80830999D01*
X130761002Y-80892892D01*
X130761001Y-87300425D01*
X130751001Y-87312610D01*
X130741001Y-87300425D01*
X130741001Y-78488894D01*
X130747097Y-78427001D01*
X130722769Y-78179998D01*
X130650721Y-77942487D01*
X130533721Y-77723596D01*
X130415720Y-77579811D01*
X130376266Y-77531736D01*
X130328191Y-77492282D01*
X128006000Y-75170092D01*
X128006000Y-73537852D01*
X128351280Y-73768561D01*
X128785322Y-73948347D01*
X129246099Y-74040001D01*
X129715903Y-74040001D01*
X130176680Y-73948347D01*
X130610722Y-73768561D01*
X131001350Y-73507551D01*
X131333551Y-73175350D01*
X131594561Y-72784722D01*
X131774347Y-72350680D01*
X131866001Y-71889903D01*
X131866001Y-71420099D01*
X131774347Y-70959322D01*
X131594561Y-70525280D01*
X131333551Y-70134652D01*
X131001350Y-69802451D01*
X130610722Y-69541441D01*
X130176680Y-69361655D01*
X129715903Y-69270001D01*
X129246099Y-69270001D01*
X128785322Y-69361655D01*
X128351280Y-69541441D01*
X128006000Y-69772150D01*
X128006000Y-65225838D01*
X128106983Y-65158363D01*
X128273693Y-64991653D01*
X131275952Y-64991653D01*
X131431962Y-65307214D01*
X131806745Y-65498020D01*
X132211551Y-65612044D01*
X132630824Y-65644902D01*
X133048451Y-65595334D01*
X133448383Y-65465243D01*
X133744038Y-65307214D01*
X133900048Y-64991653D01*
X132588000Y-63679605D01*
X131275952Y-64991653D01*
X128273693Y-64991653D01*
X128404363Y-64860983D01*
X128638012Y-64511302D01*
X128798953Y-64122756D01*
X128881000Y-63710279D01*
X128881000Y-63542824D01*
X130443098Y-63542824D01*
X130492666Y-63960451D01*
X130622757Y-64360383D01*
X130780786Y-64656038D01*
X131096347Y-64812048D01*
X132408395Y-63500000D01*
X132767605Y-63500000D01*
X134079653Y-64812048D01*
X134395214Y-64656038D01*
X134586020Y-64281255D01*
X134700044Y-63876449D01*
X134732902Y-63457176D01*
X134683334Y-63039549D01*
X134553243Y-62639617D01*
X134395214Y-62343962D01*
X134079653Y-62187952D01*
X132767605Y-63500000D01*
X132408395Y-63500000D01*
X131096347Y-62187952D01*
X130780786Y-62343962D01*
X130589980Y-62718745D01*
X130475956Y-63123551D01*
X130443098Y-63542824D01*
X128881000Y-63542824D01*
X128881000Y-63289721D01*
X128798953Y-62877244D01*
X128638012Y-62488698D01*
X128404363Y-62139017D01*
X128106983Y-61841637D01*
X127757302Y-61607988D01*
X127368756Y-61447047D01*
X126961306Y-61366000D01*
X132453323Y-61366000D01*
X132127549Y-61404666D01*
X131727617Y-61534757D01*
X131431962Y-61692786D01*
X131275952Y-62008347D01*
X132588000Y-63320395D01*
X133900048Y-62008347D01*
X133744038Y-61692786D01*
X133369255Y-61501980D01*
X132964449Y-61387956D01*
X132684287Y-61366000D01*
X134415570Y-61366000D01*
X139040001Y-73778952D01*
X139040000Y-82732837D01*
X136735649Y-93294445D01*
X136764902Y-92921176D01*
X136715334Y-92503549D01*
X136585243Y-92103617D01*
X136427214Y-91807962D01*
X136111653Y-91651952D01*
X134799605Y-92964000D01*
X136111653Y-94276048D01*
X136427214Y-94120038D01*
X136618020Y-93745255D01*
X136703510Y-93441749D01*
X136120474Y-96114000D01*
X122470820Y-96114000D01*
X121859861Y-92753721D01*
X122325000Y-92753721D01*
X122325000Y-93174279D01*
X122407047Y-93586756D01*
X122567988Y-93975302D01*
X122801637Y-94324983D01*
X123099017Y-94622363D01*
X123448698Y-94856012D01*
X123837244Y-95016953D01*
X124249721Y-95099000D01*
X124670279Y-95099000D01*
X125082756Y-95016953D01*
X125471302Y-94856012D01*
X125820983Y-94622363D01*
X126118363Y-94324983D01*
X126352012Y-93975302D01*
X126512953Y-93586756D01*
X126595000Y-93174279D01*
X126595000Y-92753721D01*
X126512953Y-92341244D01*
X126352012Y-91952698D01*
X126118363Y-91603017D01*
X125820983Y-91305637D01*
X125471302Y-91071988D01*
X125082756Y-90911047D01*
X124670279Y-90829000D01*
X124249721Y-90829000D01*
X123837244Y-90911047D01*
X123448698Y-91071988D01*
X123099017Y-91305637D01*
X122801637Y-91603017D01*
X122567988Y-91952698D01*
X122407047Y-92341244D01*
X122325000Y-92753721D01*
X121859861Y-92753721D01*
X121234639Y-89315001D01*
X125350429Y-89315001D01*
X125362689Y-89439483D01*
X125398999Y-89559181D01*
X125457964Y-89669495D01*
X125537316Y-89766186D01*
X125634007Y-89845538D01*
X125744321Y-89904503D01*
X125864019Y-89940813D01*
X125988501Y-89953073D01*
X126655251Y-89950001D01*
X126814001Y-89791251D01*
X126814001Y-88442001D01*
X125512251Y-88442001D01*
X125353501Y-88600751D01*
X125350429Y-89315001D01*
X121234639Y-89315001D01*
X120871003Y-87315001D01*
X125350429Y-87315001D01*
X125353501Y-88029251D01*
X125512251Y-88188001D01*
X126814001Y-88188001D01*
X126814001Y-86838751D01*
X126655251Y-86680001D01*
X125988501Y-86676929D01*
X125864019Y-86689189D01*
X125744321Y-86725499D01*
X125634007Y-86784464D01*
X125537316Y-86863816D01*
X125457964Y-86960507D01*
X125398999Y-87070821D01*
X125362689Y-87190519D01*
X125350429Y-87315001D01*
X120871003Y-87315001D01*
X120040000Y-82744493D01*
X120040000Y-81917000D01*
X120106928Y-81917000D01*
X120119188Y-82041482D01*
X120155498Y-82161180D01*
X120214463Y-82271494D01*
X120293815Y-82368185D01*
X120390506Y-82447537D01*
X120500820Y-82506502D01*
X120620518Y-82542812D01*
X120745000Y-82555072D01*
X121634250Y-82552000D01*
X121793000Y-82393250D01*
X121793000Y-80919000D01*
X122047000Y-80919000D01*
X122047000Y-82393250D01*
X122205750Y-82552000D01*
X123095000Y-82555072D01*
X123219482Y-82542812D01*
X123339180Y-82506502D01*
X123449494Y-82447537D01*
X123546185Y-82368185D01*
X123625537Y-82271494D01*
X123684502Y-82161180D01*
X123720812Y-82041482D01*
X123733072Y-81917000D01*
X123730000Y-81077750D01*
X123571250Y-80919000D01*
X122047000Y-80919000D01*
X121793000Y-80919000D01*
X120268750Y-80919000D01*
X120110000Y-81077750D01*
X120106928Y-81917000D01*
X120040000Y-81917000D01*
X120040000Y-79667000D01*
X120106928Y-79667000D01*
X120110000Y-80506250D01*
X120268750Y-80665000D01*
X121793000Y-80665000D01*
X121793000Y-79190750D01*
X122047000Y-79190750D01*
X122047000Y-80665000D01*
X123571250Y-80665000D01*
X123730000Y-80506250D01*
X123733072Y-79667000D01*
X123720812Y-79542518D01*
X123684502Y-79422820D01*
X123625537Y-79312506D01*
X123546185Y-79215815D01*
X123449494Y-79136463D01*
X123339180Y-79077498D01*
X123219482Y-79041188D01*
X123095000Y-79028928D01*
X122205750Y-79032000D01*
X122047000Y-79190750D01*
X121793000Y-79190750D01*
X121634250Y-79032000D01*
X120745000Y-79028928D01*
X120620518Y-79041188D01*
X120500820Y-79077498D01*
X120390506Y-79136463D01*
X120293815Y-79215815D01*
X120214463Y-79312506D01*
X120155498Y-79422820D01*
X120119188Y-79542518D01*
X120106928Y-79667000D01*
X120040000Y-79667000D01*
X120040000Y-73784783D01*
X124910111Y-61366000D01*
X126530694Y-61366000D01*
X126123244Y-61447047D01*
G37*
X126123244Y-61447047D02*
X125734698Y-61607988D01*
X125385017Y-61841637D01*
X125087637Y-62139017D01*
X124853988Y-62488698D01*
X124693047Y-62877244D01*
X124611000Y-63289721D01*
X124611000Y-63710279D01*
X124693047Y-64122756D01*
X124853988Y-64511302D01*
X125087637Y-64860983D01*
X125385017Y-65158363D01*
X125486001Y-65225838D01*
X125486000Y-74432000D01*
X123641339Y-74432000D01*
X123583405Y-74323613D01*
X123472962Y-74189038D01*
X123338387Y-74078595D01*
X123184851Y-73996528D01*
X123018255Y-73945992D01*
X122845001Y-73928928D01*
X120994999Y-73928928D01*
X120821745Y-73945992D01*
X120655149Y-73996528D01*
X120501613Y-74078595D01*
X120367038Y-74189038D01*
X120256595Y-74323613D01*
X120174528Y-74477149D01*
X120123992Y-74643745D01*
X120106928Y-74816999D01*
X120106928Y-76567001D01*
X120123992Y-76740255D01*
X120174528Y-76906851D01*
X120256595Y-77060387D01*
X120367038Y-77194962D01*
X120501613Y-77305405D01*
X120655149Y-77387472D01*
X120821745Y-77438008D01*
X120994999Y-77455072D01*
X122845001Y-77455072D01*
X123018255Y-77438008D01*
X123184851Y-77387472D01*
X123338387Y-77305405D01*
X123472962Y-77194962D01*
X123583405Y-77060387D01*
X123641339Y-76952000D01*
X126224092Y-76952000D01*
X128221002Y-78948911D01*
X128221001Y-86770035D01*
X128137681Y-86725499D01*
X128017983Y-86689189D01*
X127893501Y-86676929D01*
X127226751Y-86680001D01*
X127068001Y-86838751D01*
X127068001Y-88188001D01*
X127088001Y-88188001D01*
X127088001Y-88442001D01*
X127068001Y-88442001D01*
X127068001Y-89791251D01*
X127226751Y-89950001D01*
X127893501Y-89953073D01*
X128017983Y-89940813D01*
X128137681Y-89904503D01*
X128247995Y-89845538D01*
X128344686Y-89766186D01*
X128424038Y-89669495D01*
X128468906Y-89585554D01*
X128594767Y-89688846D01*
X128870553Y-89836256D01*
X129169798Y-89927031D01*
X129481001Y-89957682D01*
X129792205Y-89927031D01*
X130091450Y-89836256D01*
X130367236Y-89688846D01*
X130608964Y-89490464D01*
X130751001Y-89317392D01*
X130761001Y-89329578D01*
X130761002Y-89961089D01*
X129869397Y-90852694D01*
X129750279Y-90829000D01*
X129329721Y-90829000D01*
X128917244Y-90911047D01*
X128528698Y-91071988D01*
X128179017Y-91305637D01*
X127881637Y-91603017D01*
X127647988Y-91952698D01*
X127487047Y-92341244D01*
X127405000Y-92753721D01*
X127405000Y-93174279D01*
X127487047Y-93586756D01*
X127647988Y-93975302D01*
X127881637Y-94324983D01*
X128179017Y-94622363D01*
X128528698Y-94856012D01*
X128917244Y-95016953D01*
X129329721Y-95099000D01*
X129750279Y-95099000D01*
X130162756Y-95016953D01*
X130551302Y-94856012D01*
X130900983Y-94622363D01*
X131067693Y-94455653D01*
X133307952Y-94455653D01*
X133463962Y-94771214D01*
X133838745Y-94962020D01*
X134243551Y-95076044D01*
X134662824Y-95108902D01*
X135080451Y-95059334D01*
X135480383Y-94929243D01*
X135776038Y-94771214D01*
X135932048Y-94455653D01*
X134620000Y-93143605D01*
X133307952Y-94455653D01*
X131067693Y-94455653D01*
X131198363Y-94324983D01*
X131432012Y-93975302D01*
X131592953Y-93586756D01*
X131675000Y-93174279D01*
X131675000Y-93006824D01*
X132475098Y-93006824D01*
X132524666Y-93424451D01*
X132654757Y-93824383D01*
X132812786Y-94120038D01*
X133128347Y-94276048D01*
X134440395Y-92964000D01*
X133128347Y-91651952D01*
X132812786Y-91807962D01*
X132621980Y-92182745D01*
X132507956Y-92587551D01*
X132475098Y-93006824D01*
X131675000Y-93006824D01*
X131675000Y-92753721D01*
X131651306Y-92634603D01*
X132813562Y-91472347D01*
X133307952Y-91472347D01*
X134620000Y-92784395D01*
X135932048Y-91472347D01*
X135776038Y-91156786D01*
X135401255Y-90965980D01*
X134996449Y-90851956D01*
X134577176Y-90819098D01*
X134159549Y-90868666D01*
X133759617Y-90998757D01*
X133463962Y-91156786D01*
X133307952Y-91472347D01*
X132813562Y-91472347D01*
X132868191Y-91417718D01*
X132916266Y-91378264D01*
X133073721Y-91186404D01*
X133190721Y-90967513D01*
X133262769Y-90730002D01*
X133281001Y-90544892D01*
X133281001Y-90544883D01*
X133287096Y-90483000D01*
X133281001Y-90421117D01*
X133281001Y-89329577D01*
X133347346Y-89248735D01*
X133494756Y-88972949D01*
X133585531Y-88673704D01*
X133608501Y-88440486D01*
X133608501Y-88189515D01*
X133585531Y-87956297D01*
X133494756Y-87657052D01*
X133347346Y-87381266D01*
X133281001Y-87300425D01*
X133281001Y-81917000D01*
X135346928Y-81917000D01*
X135359188Y-82041482D01*
X135395498Y-82161180D01*
X135454463Y-82271494D01*
X135533815Y-82368185D01*
X135630506Y-82447537D01*
X135740820Y-82506502D01*
X135860518Y-82542812D01*
X135985000Y-82555072D01*
X136874250Y-82552000D01*
X137033000Y-82393250D01*
X137033000Y-80919000D01*
X137287000Y-80919000D01*
X137287000Y-82393250D01*
X137445750Y-82552000D01*
X138335000Y-82555072D01*
X138459482Y-82542812D01*
X138579180Y-82506502D01*
X138689494Y-82447537D01*
X138786185Y-82368185D01*
X138865537Y-82271494D01*
X138924502Y-82161180D01*
X138960812Y-82041482D01*
X138973072Y-81917000D01*
X138970000Y-81077750D01*
X138811250Y-80919000D01*
X137287000Y-80919000D01*
X137033000Y-80919000D01*
X135508750Y-80919000D01*
X135350000Y-81077750D01*
X135346928Y-81917000D01*
X133281001Y-81917000D01*
X133281001Y-81352907D01*
X134966908Y-79667000D01*
X135346928Y-79667000D01*
X135350000Y-80506250D01*
X135508750Y-80665000D01*
X137033000Y-80665000D01*
X137033000Y-79190750D01*
X137287000Y-79190750D01*
X137287000Y-80665000D01*
X138811250Y-80665000D01*
X138970000Y-80506250D01*
X138973072Y-79667000D01*
X138960812Y-79542518D01*
X138924502Y-79422820D01*
X138865537Y-79312506D01*
X138786185Y-79215815D01*
X138689494Y-79136463D01*
X138579180Y-79077498D01*
X138459482Y-79041188D01*
X138335000Y-79028928D01*
X137445750Y-79032000D01*
X137287000Y-79190750D01*
X137033000Y-79190750D01*
X136874250Y-79032000D01*
X135985000Y-79028928D01*
X135860518Y-79041188D01*
X135740820Y-79077498D01*
X135630506Y-79136463D01*
X135533815Y-79215815D01*
X135454463Y-79312506D01*
X135395498Y-79422820D01*
X135359188Y-79542518D01*
X135346928Y-79667000D01*
X134966908Y-79667000D01*
X137178837Y-77455072D01*
X138085001Y-77455072D01*
X138258255Y-77438008D01*
X138424851Y-77387472D01*
X138578387Y-77305405D01*
X138712962Y-77194962D01*
X138823405Y-77060387D01*
X138905472Y-76906851D01*
X138956008Y-76740255D01*
X138973072Y-76567001D01*
X138973072Y-74816999D01*
X138956008Y-74643745D01*
X138905472Y-74477149D01*
X138823405Y-74323613D01*
X138712962Y-74189038D01*
X138578387Y-74078595D01*
X138424851Y-73996528D01*
X138258255Y-73945992D01*
X138085001Y-73928928D01*
X136234999Y-73928928D01*
X136061745Y-73945992D01*
X135895149Y-73996528D01*
X135741613Y-74078595D01*
X135607038Y-74189038D01*
X135496595Y-74323613D01*
X135414528Y-74477149D01*
X135363992Y-74643745D01*
X135346928Y-74816999D01*
X135346928Y-75723163D01*
X131173812Y-79896280D01*
X131125737Y-79935734D01*
X131086283Y-79983809D01*
X131086282Y-79983810D01*
X130968281Y-80127594D01*
X130851281Y-80346486D01*
X130779234Y-80583996D01*
X130754906Y-80830999D01*
X130761002Y-80892892D01*
X130761001Y-87300425D01*
X130751001Y-87312610D01*
X130741001Y-87300425D01*
X130741001Y-78488894D01*
X130747097Y-78427001D01*
X130722769Y-78179998D01*
X130650721Y-77942487D01*
X130533721Y-77723596D01*
X130415720Y-77579811D01*
X130376266Y-77531736D01*
X130328191Y-77492282D01*
X128006000Y-75170092D01*
X128006000Y-73537852D01*
X128351280Y-73768561D01*
X128785322Y-73948347D01*
X129246099Y-74040001D01*
X129715903Y-74040001D01*
X130176680Y-73948347D01*
X130610722Y-73768561D01*
X131001350Y-73507551D01*
X131333551Y-73175350D01*
X131594561Y-72784722D01*
X131774347Y-72350680D01*
X131866001Y-71889903D01*
X131866001Y-71420099D01*
X131774347Y-70959322D01*
X131594561Y-70525280D01*
X131333551Y-70134652D01*
X131001350Y-69802451D01*
X130610722Y-69541441D01*
X130176680Y-69361655D01*
X129715903Y-69270001D01*
X129246099Y-69270001D01*
X128785322Y-69361655D01*
X128351280Y-69541441D01*
X128006000Y-69772150D01*
X128006000Y-65225838D01*
X128106983Y-65158363D01*
X128273693Y-64991653D01*
X131275952Y-64991653D01*
X131431962Y-65307214D01*
X131806745Y-65498020D01*
X132211551Y-65612044D01*
X132630824Y-65644902D01*
X133048451Y-65595334D01*
X133448383Y-65465243D01*
X133744038Y-65307214D01*
X133900048Y-64991653D01*
X132588000Y-63679605D01*
X131275952Y-64991653D01*
X128273693Y-64991653D01*
X128404363Y-64860983D01*
X128638012Y-64511302D01*
X128798953Y-64122756D01*
X128881000Y-63710279D01*
X128881000Y-63542824D01*
X130443098Y-63542824D01*
X130492666Y-63960451D01*
X130622757Y-64360383D01*
X130780786Y-64656038D01*
X131096347Y-64812048D01*
X132408395Y-63500000D01*
X132767605Y-63500000D01*
X134079653Y-64812048D01*
X134395214Y-64656038D01*
X134586020Y-64281255D01*
X134700044Y-63876449D01*
X134732902Y-63457176D01*
X134683334Y-63039549D01*
X134553243Y-62639617D01*
X134395214Y-62343962D01*
X134079653Y-62187952D01*
X132767605Y-63500000D01*
X132408395Y-63500000D01*
X131096347Y-62187952D01*
X130780786Y-62343962D01*
X130589980Y-62718745D01*
X130475956Y-63123551D01*
X130443098Y-63542824D01*
X128881000Y-63542824D01*
X128881000Y-63289721D01*
X128798953Y-62877244D01*
X128638012Y-62488698D01*
X128404363Y-62139017D01*
X128106983Y-61841637D01*
X127757302Y-61607988D01*
X127368756Y-61447047D01*
X126961306Y-61366000D01*
X132453323Y-61366000D01*
X132127549Y-61404666D01*
X131727617Y-61534757D01*
X131431962Y-61692786D01*
X131275952Y-62008347D01*
X132588000Y-63320395D01*
X133900048Y-62008347D01*
X133744038Y-61692786D01*
X133369255Y-61501980D01*
X132964449Y-61387956D01*
X132684287Y-61366000D01*
X134415570Y-61366000D01*
X139040001Y-73778952D01*
X139040000Y-82732837D01*
X136735649Y-93294445D01*
X136764902Y-92921176D01*
X136715334Y-92503549D01*
X136585243Y-92103617D01*
X136427214Y-91807962D01*
X136111653Y-91651952D01*
X134799605Y-92964000D01*
X136111653Y-94276048D01*
X136427214Y-94120038D01*
X136618020Y-93745255D01*
X136703510Y-93441749D01*
X136120474Y-96114000D01*
X122470820Y-96114000D01*
X121859861Y-92753721D01*
X122325000Y-92753721D01*
X122325000Y-93174279D01*
X122407047Y-93586756D01*
X122567988Y-93975302D01*
X122801637Y-94324983D01*
X123099017Y-94622363D01*
X123448698Y-94856012D01*
X123837244Y-95016953D01*
X124249721Y-95099000D01*
X124670279Y-95099000D01*
X125082756Y-95016953D01*
X125471302Y-94856012D01*
X125820983Y-94622363D01*
X126118363Y-94324983D01*
X126352012Y-93975302D01*
X126512953Y-93586756D01*
X126595000Y-93174279D01*
X126595000Y-92753721D01*
X126512953Y-92341244D01*
X126352012Y-91952698D01*
X126118363Y-91603017D01*
X125820983Y-91305637D01*
X125471302Y-91071988D01*
X125082756Y-90911047D01*
X124670279Y-90829000D01*
X124249721Y-90829000D01*
X123837244Y-90911047D01*
X123448698Y-91071988D01*
X123099017Y-91305637D01*
X122801637Y-91603017D01*
X122567988Y-91952698D01*
X122407047Y-92341244D01*
X122325000Y-92753721D01*
X121859861Y-92753721D01*
X121234639Y-89315001D01*
X125350429Y-89315001D01*
X125362689Y-89439483D01*
X125398999Y-89559181D01*
X125457964Y-89669495D01*
X125537316Y-89766186D01*
X125634007Y-89845538D01*
X125744321Y-89904503D01*
X125864019Y-89940813D01*
X125988501Y-89953073D01*
X126655251Y-89950001D01*
X126814001Y-89791251D01*
X126814001Y-88442001D01*
X125512251Y-88442001D01*
X125353501Y-88600751D01*
X125350429Y-89315001D01*
X121234639Y-89315001D01*
X120871003Y-87315001D01*
X125350429Y-87315001D01*
X125353501Y-88029251D01*
X125512251Y-88188001D01*
X126814001Y-88188001D01*
X126814001Y-86838751D01*
X126655251Y-86680001D01*
X125988501Y-86676929D01*
X125864019Y-86689189D01*
X125744321Y-86725499D01*
X125634007Y-86784464D01*
X125537316Y-86863816D01*
X125457964Y-86960507D01*
X125398999Y-87070821D01*
X125362689Y-87190519D01*
X125350429Y-87315001D01*
X120871003Y-87315001D01*
X120040000Y-82744493D01*
X120040000Y-81917000D01*
X120106928Y-81917000D01*
X120119188Y-82041482D01*
X120155498Y-82161180D01*
X120214463Y-82271494D01*
X120293815Y-82368185D01*
X120390506Y-82447537D01*
X120500820Y-82506502D01*
X120620518Y-82542812D01*
X120745000Y-82555072D01*
X121634250Y-82552000D01*
X121793000Y-82393250D01*
X121793000Y-80919000D01*
X122047000Y-80919000D01*
X122047000Y-82393250D01*
X122205750Y-82552000D01*
X123095000Y-82555072D01*
X123219482Y-82542812D01*
X123339180Y-82506502D01*
X123449494Y-82447537D01*
X123546185Y-82368185D01*
X123625537Y-82271494D01*
X123684502Y-82161180D01*
X123720812Y-82041482D01*
X123733072Y-81917000D01*
X123730000Y-81077750D01*
X123571250Y-80919000D01*
X122047000Y-80919000D01*
X121793000Y-80919000D01*
X120268750Y-80919000D01*
X120110000Y-81077750D01*
X120106928Y-81917000D01*
X120040000Y-81917000D01*
X120040000Y-79667000D01*
X120106928Y-79667000D01*
X120110000Y-80506250D01*
X120268750Y-80665000D01*
X121793000Y-80665000D01*
X121793000Y-79190750D01*
X122047000Y-79190750D01*
X122047000Y-80665000D01*
X123571250Y-80665000D01*
X123730000Y-80506250D01*
X123733072Y-79667000D01*
X123720812Y-79542518D01*
X123684502Y-79422820D01*
X123625537Y-79312506D01*
X123546185Y-79215815D01*
X123449494Y-79136463D01*
X123339180Y-79077498D01*
X123219482Y-79041188D01*
X123095000Y-79028928D01*
X122205750Y-79032000D01*
X122047000Y-79190750D01*
X121793000Y-79190750D01*
X121634250Y-79032000D01*
X120745000Y-79028928D01*
X120620518Y-79041188D01*
X120500820Y-79077498D01*
X120390506Y-79136463D01*
X120293815Y-79215815D01*
X120214463Y-79312506D01*
X120155498Y-79422820D01*
X120119188Y-79542518D01*
X120106928Y-79667000D01*
X120040000Y-79667000D01*
X120040000Y-73784783D01*
X124910111Y-61366000D01*
X126530694Y-61366000D01*
X126123244Y-61447047D01*
%TD*%
M02*
