%TF.GenerationSoftware,KiCad,Pcbnew,(5.1.6)-1*%
%TF.CreationDate,2021-05-20T08:24:50-04:00*%
%TF.ProjectId,ATX2AT-5v,41545832-4154-42d3-9576-2e6b69636164,rev?*%
%TF.SameCoordinates,Original*%
%TF.FileFunction,Soldermask,Top*%
%TF.FilePolarity,Negative*%
%FSLAX46Y46*%
G04 Gerber Fmt 4.6, Leading zero omitted, Abs format (unit mm)*
G04 Created by KiCad (PCBNEW (5.1.6)-1) date 2021-05-20 08:24:50*
%MOMM*%
%LPD*%
G01*
G04 APERTURE LIST*
%ADD10C,3.100000*%
%ADD11O,3.600000X3.600000*%
%ADD12R,2.005000X2.100000*%
%ADD13O,2.005000X2.100000*%
G04 APERTURE END LIST*
%TO.C,C1*%
G36*
G01*
X122883890Y-81967000D02*
X120956110Y-81967000D01*
G75*
G02*
X120695000Y-81705890I0J261110D01*
G01*
X120695000Y-79878110D01*
G75*
G02*
X120956110Y-79617000I261110J0D01*
G01*
X122883890Y-79617000D01*
G75*
G02*
X123145000Y-79878110I0J-261110D01*
G01*
X123145000Y-81705890D01*
G75*
G02*
X122883890Y-81967000I-261110J0D01*
G01*
G37*
G36*
G01*
X122883890Y-76867000D02*
X120956110Y-76867000D01*
G75*
G02*
X120695000Y-76605890I0J261110D01*
G01*
X120695000Y-74778110D01*
G75*
G02*
X120956110Y-74517000I261110J0D01*
G01*
X122883890Y-74517000D01*
G75*
G02*
X123145000Y-74778110I0J-261110D01*
G01*
X123145000Y-76605890D01*
G75*
G02*
X122883890Y-76867000I-261110J0D01*
G01*
G37*
%TD*%
%TO.C,C2*%
G36*
G01*
X138123890Y-76867000D02*
X136196110Y-76867000D01*
G75*
G02*
X135935000Y-76605890I0J261110D01*
G01*
X135935000Y-74778110D01*
G75*
G02*
X136196110Y-74517000I261110J0D01*
G01*
X138123890Y-74517000D01*
G75*
G02*
X138385000Y-74778110I0J-261110D01*
G01*
X138385000Y-76605890D01*
G75*
G02*
X138123890Y-76867000I-261110J0D01*
G01*
G37*
G36*
G01*
X138123890Y-81967000D02*
X136196110Y-81967000D01*
G75*
G02*
X135935000Y-81705890I0J261110D01*
G01*
X135935000Y-79878110D01*
G75*
G02*
X136196110Y-79617000I261110J0D01*
G01*
X138123890Y-79617000D01*
G75*
G02*
X138385000Y-79878110I0J-261110D01*
G01*
X138385000Y-81705890D01*
G75*
G02*
X138123890Y-81967000I-261110J0D01*
G01*
G37*
%TD*%
D10*
%TO.C,-12V*%
X126746000Y-63500000D03*
%TD*%
%TO.C,GND*%
X132588000Y-63500000D03*
%TD*%
%TO.C,-12V*%
X124460000Y-92964000D03*
%TD*%
%TO.C,-5V*%
X129540000Y-92964000D03*
%TD*%
%TO.C,GND*%
X134620000Y-92964000D03*
%TD*%
D11*
%TO.C,U1*%
X129481001Y-71655001D03*
D12*
X126941001Y-88315001D03*
D13*
X129481001Y-88315001D03*
X132021001Y-88315001D03*
%TD*%
M02*
